<svg width="137" height="64" viewBox="0 0 137 64" fill="none" xmlns="http://www.w3.org/2000/svg">
<path d="M45.14 33.0075C45.4653 32.9008 45.7186 32.6422 45.8199 32.3142C45.9212 31.9863 45.8599 31.6317 45.6546 31.3571C44.9026 30.4052 44.5827 29.1813 44.772 27.9815C44.9106 27.4109 44.5614 26.835 43.9881 26.6937C43.4175 26.555 42.8416 26.9016 42.7003 27.4722C42.4257 28.9094 42.6523 30.3945 43.3455 31.6824C42.423 32.565 41.8177 33.7275 41.6231 34.9887C41.4925 36.0952 41.5725 37.215 41.8578 38.2922C42.343 40.8119 42.8949 43.6702 40.2046 47.3658C38.0636 50.3094 37.0236 51.168 36.6531 51.408L36.6557 51.4106C36.3278 51.3386 35.9892 51.424 35.7332 51.6399C35.4799 51.8586 35.3439 52.1812 35.3625 52.5145C35.3839 52.8477 35.5518 53.1544 35.8185 53.3544C37.5009 55.1088 39.826 56.1007 42.2577 56.098C45.9932 56.098 49.3504 53.8183 50.7258 50.3467C51.1364 49.3122 51.4643 48.2457 51.707 47.1604C51.835 46.5845 51.4724 46.0166 50.8991 45.8886C50.3232 45.7606 49.7552 46.1232 49.6272 46.6965C49.4059 47.6724 49.1126 48.6322 48.742 49.5601C47.8647 51.7998 45.8864 53.4237 43.5187 53.8503C41.7349 54.1862 39.8898 53.7916 38.394 52.7597C39.7218 51.5145 40.9084 50.128 41.9296 48.6216C45.1638 44.1741 44.4626 40.5425 43.9533 37.8893C43.7346 37.0814 43.652 36.2415 43.7133 35.4043C44.1053 33.4499 45.124 33.0155 45.14 33.0075Z" fill="#EE5335"/>
<path d="M49.161 36.1699C49.7503 36.1699 50.2276 35.6926 50.2276 35.1033C50.2276 34.5141 49.7503 34.0368 49.161 34.0368H47.4679C46.8786 34.0368 46.4014 34.5141 46.4014 35.1033C46.4014 35.6926 46.8786 36.1699 47.4679 36.1699H49.161Z" fill="#EE5335"/>
<path d="M27.7369 43.4626C28.3262 43.4626 28.8035 42.9853 28.8035 42.3961C28.8035 41.9534 29.1608 41.5961 29.6034 41.5961C30.046 41.5961 30.4033 41.9534 30.4033 42.3961C30.4033 42.9853 30.8806 43.4626 31.4698 43.4626C32.0591 43.4626 32.5364 42.9853 32.5364 42.3961C32.5364 40.7749 31.2245 39.4631 29.6034 39.4631C27.9823 39.4631 26.6704 40.7749 26.6704 42.3961C26.6704 42.9853 27.1477 43.4626 27.7369 43.4626Z" fill="#EE5335"/>
<path d="M27.2037 9.60039C27.2037 8.30724 26.4252 7.13934 25.228 6.64344C24.0335 6.15017 22.6577 6.42214 21.7404 7.33667C20.8259 8.25393 20.5539 9.62974 21.0472 10.8243C21.5431 12.0214 22.711 12.8 24.0041 12.8C25.7692 12.7973 27.2011 11.3655 27.2037 9.60039ZM24.0041 10.6669C23.5722 10.6669 23.1829 10.4083 23.0176 10.0083C22.855 9.61106 22.9456 9.15245 23.2496 8.84583C23.5562 8.54187 24.0148 8.45122 24.4121 8.61387C24.812 8.77918 25.0707 9.16846 25.0707 9.6004C25.0707 10.1897 24.5934 10.6669 24.0041 10.6669Z" fill="#EE5335"/>
<path d="M32.0031 0.00124773C31.4138 0.00124773 30.9365 0.478522 30.9365 1.06778C30.9365 1.65704 31.4138 2.13431 32.0031 2.13431C39.8316 2.12898 47.3455 5.19795 52.931 10.6823C58.517 16.1642 61.7247 23.622 61.8605 31.4505C61.9992 39.2763 59.0555 46.8407 53.6668 52.517C55.8346 47.8669 55.4293 43.5472 54.2481 41.58C53.9095 41.0121 53.5122 40.4815 53.0642 39.9962H54.9333C55.232 39.9962 55.5199 39.8709 55.7199 39.6496C55.9225 39.4283 56.0238 39.1323 55.9945 38.8337L55.8345 37.0713V37.0686C55.8292 37.0206 55.8212 36.9726 55.8105 36.9273C55.4159 35.2155 54.2267 30.0694 48.8543 29.8721C48.1158 29.2162 48.1638 26.8699 48.5077 25.2994V25.2967C48.6357 24.7208 48.2731 24.1529 47.6998 24.0249C47.1239 23.8969 46.5559 24.2595 46.428 24.8328C46.3 25.4087 45.2601 30.4854 48.0597 31.8852H48.0571C48.2064 31.9599 48.369 31.9972 48.5343 31.9972C51.286 31.9972 52.8405 33.5943 53.7177 37.3352L53.7657 37.8631H49.6009C49.0623 37.8631 48.609 38.2657 48.5423 38.799C48.4757 39.3349 48.8196 39.8335 49.3423 39.9642C49.3583 39.9695 51.0834 40.4521 52.4192 42.6785C53.6431 44.7183 53.747 51.9678 46.8252 57.9062C42.3165 60.5006 37.2049 61.8658 32.003 61.8604C31.1471 61.8604 30.3019 61.8151 29.4619 61.7458C28.5261 59.5967 27.7022 56.5438 28.7394 53.6934C30.5418 48.734 34.3947 49.0433 34.552 49.0566C34.8319 49.0859 35.1145 49.0059 35.3358 48.8273L36.4903 47.902V47.9047C37.6475 46.9821 38.4874 45.7183 38.8927 44.2945L39.4286 42.4227C39.5166 42.1134 39.4606 41.7801 39.2766 41.5188L36.8476 38.0473C36.101 36.9861 35.0052 36.2262 33.7493 35.9062L31.9549 30.083C31.8482 29.739 31.5762 29.4697 31.227 29.3711C30.8803 29.2724 30.5044 29.3577 30.2351 29.595L28.0887 31.4748L27.6408 30.4909V30.4882C27.5181 30.2163 27.2862 30.011 27.0009 29.9176C26.7182 29.8243 26.4089 29.8537 26.1476 30.0003C25.2171 30.5229 17.0713 35.2423 17.0741 39.9482C17.0128 40.1935 16.9274 40.4335 16.8181 40.6602C16.0449 42.4732 14.9143 44.1104 13.4932 45.4756L8.47246 50.3523C7.42456 49.0165 6.49406 47.5953 5.68882 46.1021C12.4053 39.9082 13.2744 32.8771 13.3467 30.2772C14.6692 30.0852 15.8851 29.4506 16.7996 28.4747C17.9008 27.3015 18.4581 25.7204 18.3354 24.1153L17.7648 17.3028C17.7408 17.0202 17.6075 16.7588 17.3915 16.5775C17.1756 16.3936 16.8956 16.3029 16.613 16.3269C16.3304 16.3509 16.069 16.4869 15.8877 16.7029C15.7038 16.9188 15.6158 17.1988 15.6398 17.4814L16.2077 24.2805C16.285 25.2911 15.9331 26.2856 15.2371 27.0242C14.5279 27.7894 13.5307 28.2213 12.4882 28.216H11.203C10.1471 28.216 9.13663 27.7707 8.4247 26.9922C7.72881 26.2376 7.39018 25.2244 7.48881 24.2059L8.87527 10.757C9.11791 8.42922 10.9577 6.59212 13.2827 6.34687L27.1582 4.65638L29.6193 9.11719V9.11452C29.8086 9.45581 30.1659 9.66645 30.5525 9.66645H38.2984L37.0666 16.0044C36.632 18.1561 34.7869 19.7319 32.5925 19.8279L26.0866 20.4972V20.4945C25.5027 20.5558 25.0787 21.0811 25.1374 21.665C25.1988 22.2516 25.7214 22.6755 26.3053 22.6168L29.4436 22.2942L29.9875 27.8349C30.0408 28.3815 30.4994 28.7974 31.0487 28.7974C31.0834 28.7974 31.118 28.7948 31.1554 28.7921C31.4353 28.7654 31.694 28.6268 31.8753 28.4082C32.0539 28.1895 32.1393 27.9069 32.1099 27.6269L31.5633 22.0756L32.7605 21.953H32.7632C33.7017 21.8997 34.619 21.657 35.4615 21.2411C36.3414 21.721 37.1599 22.3103 37.8932 22.9928C39.173 24.0727 40.3862 25.0965 41.7007 25.0965C41.778 25.0965 41.858 25.0939 41.938 25.0859C42.6392 25.0086 43.2791 24.6433 43.7004 24.078C44.7243 22.8141 45.0389 21.5983 44.6363 20.4624C43.9351 18.4973 41.3461 17.6094 38.9917 17.0789C39.0584 16.8602 39.1143 16.6362 39.1597 16.4123L40.6395 8.80491C40.7008 8.49028 40.6182 8.16766 40.4155 7.92233C40.2129 7.67701 39.9116 7.53305 39.5943 7.53305H31.1849L28.6786 2.99497C28.4679 2.61369 28.0466 2.40038 27.6147 2.45104L13.0382 4.22684C9.71589 4.58946 7.09758 7.22112 6.75363 10.546L5.36717 23.9949C5.21518 25.6134 5.75379 27.2239 6.847 28.4264C7.96418 29.6503 9.54532 30.3488 11.2038 30.3488H11.2065C11.1078 32.6232 10.2865 38.6599 4.70862 44.0912V44.0886C3.01281 40.2837 2.13829 36.1645 2.14095 31.9966C2.14095 29.7462 2.39159 27.5039 2.89288 25.3095C2.95687 25.0322 2.90621 24.7442 2.7569 24.5042C2.60758 24.2642 2.36761 24.0936 2.09032 24.0296C1.81569 23.9683 1.52506 24.0163 1.28507 24.1683C1.04511 24.3176 0.877123 24.5575 0.813131 24.8322C-1.1813 33.5112 0.530501 42.6298 5.53789 49.9914C10.5452 57.3558 18.395 62.3018 27.1989 63.6376C36.0029 64.9734 44.9645 62.5817 51.9316 57.0331C58.8987 51.4871 63.2365 43.288 63.9088 34.4089C64.5781 25.5299 61.5198 16.771 55.4646 10.2415C49.4094 3.71188 40.9093 0 32.0036 0L32.0031 0.00124773ZM42.6254 21.1797C42.796 21.6596 42.4014 22.2916 42.0415 22.7368C41.8682 22.9501 41.7695 22.9581 41.7348 22.9634C41.1936 23.0061 40.0924 22.0596 39.2685 21.3636V21.3609C38.6579 20.8277 38.018 20.3291 37.3487 19.8678C37.5967 19.6145 37.8233 19.3399 38.0286 19.0519C41.4575 19.7718 42.4201 20.6064 42.6254 21.1797ZM30.4004 32.2826L31.4642 35.7302H30.0244L29.0112 33.5011L30.4004 32.2826ZM9.84306 51.9921L14.9784 47.0061C16.6049 45.4409 17.898 43.5665 18.7832 41.4921C19.0179 41.0255 19.1619 40.5189 19.2045 39.9963C19.2045 37.6206 23.1507 34.357 26.1928 32.4558L28.3659 37.2365V37.2392C28.5392 37.6178 28.9178 37.8631 29.3364 37.8631H32.3947C33.4719 37.8631 34.4825 38.3884 35.0984 39.271L37.2368 42.3239L36.8421 43.7077V43.7104C36.5568 44.7076 35.9703 45.5902 35.157 46.2381L34.3197 46.9073C32.248 46.8753 28.5071 48.0885 26.7342 52.9626C25.6436 55.9622 26.1849 59.0391 27.0488 61.4416C20.4123 60.3218 14.3495 56.9917 9.84306 51.9921Z" fill="#EE5335"/>
<path d="M81.7875 37.844C81.8195 37.404 81.8435 36.8 81.8595 36.032C81.8755 35.264 81.8875 34.404 81.8955 33.452C81.9115 32.492 81.9195 31.5 81.9195 30.476C81.9195 29.444 81.9115 28.428 81.8955 27.428C81.8875 26.428 81.8755 25.504 81.8595 24.656C81.8435 23.8 81.8195 23.088 81.7875 22.52C81.9235 22.504 82.1315 22.484 82.4115 22.46C82.6995 22.436 82.9875 22.424 83.2755 22.424C83.4675 22.424 83.6755 22.432 83.8995 22.448C84.1315 22.464 84.2915 22.48 84.3795 22.496C84.4035 23.064 84.4235 23.748 84.4395 24.548C84.4555 25.34 84.4635 26.196 84.4635 27.116C84.4715 28.028 84.4675 28.956 84.4515 29.9C84.4355 30.844 84.4195 31.752 84.4035 32.624C84.3955 33.224 84.3835 33.772 84.3675 34.268C84.3515 34.756 84.3315 35.148 84.3075 35.444C84.8595 35.412 85.4835 35.38 86.1795 35.348C86.8835 35.316 87.6075 35.288 88.3515 35.264C89.0955 35.24 89.8155 35.228 90.5115 35.228C90.5195 35.38 90.5275 35.596 90.5355 35.876C90.5435 36.156 90.5475 36.448 90.5475 36.752C90.5475 37.056 90.5435 37.324 90.5355 37.556C89.6395 37.644 88.7795 37.716 87.9555 37.772C87.1395 37.82 86.3635 37.852 85.6275 37.868C84.9475 37.892 84.2875 37.9 83.6475 37.892C83.0155 37.884 82.3955 37.868 81.7875 37.844ZM94.8188 38.18C94.6668 38.18 94.4748 38.176 94.2428 38.168C94.0188 38.16 93.7828 38.148 93.5348 38.132C93.2868 38.124 93.0508 38.112 92.8268 38.096C92.6028 38.088 92.4148 38.076 92.2628 38.06C92.3428 37.644 92.4548 37.06 92.5988 36.308C92.7508 35.556 92.9308 34.704 93.1388 33.752C93.3468 32.792 93.5668 31.788 93.7988 30.74C94.0308 29.692 94.2668 28.652 94.5068 27.62C94.7548 26.58 94.9908 25.604 95.2148 24.692C95.4388 23.78 95.6388 22.996 95.8148 22.34C96.3028 22.268 96.8948 22.196 97.5908 22.124C98.2948 22.052 99.0108 22.016 99.7388 22.016C100.051 22.016 100.375 22.024 100.711 22.04C101.047 22.056 101.367 22.084 101.671 22.124C101.823 22.828 101.975 23.668 102.127 24.644C102.287 25.62 102.439 26.756 102.583 28.052C102.735 29.348 102.883 30.82 103.027 32.468C103.179 34.108 103.327 35.952 103.471 38C103.287 38.032 103.043 38.06 102.739 38.084C102.435 38.116 102.119 38.14 101.791 38.156C101.471 38.172 101.175 38.18 100.903 38.18C100.887 37.948 100.871 37.644 100.855 37.268C100.839 36.892 100.819 36.476 100.795 36.02C100.771 35.556 100.747 35.096 100.723 34.64C100.699 34.176 100.675 33.748 100.651 33.356C100.627 32.964 100.607 32.644 100.591 32.396C100.335 32.404 100.023 32.416 99.6548 32.432C99.2868 32.448 98.8988 32.472 98.4908 32.504C98.0908 32.528 97.7028 32.556 97.3268 32.588C96.9588 32.62 96.6388 32.652 96.3668 32.684C96.0948 32.716 95.9148 32.74 95.8268 32.756C95.6828 33.436 95.5428 34.124 95.4068 34.82C95.2708 35.508 95.1508 36.148 95.0468 36.74C94.9428 37.324 94.8668 37.804 94.8188 38.18ZM96.1508 30.692C96.4468 30.628 96.8548 30.568 97.3748 30.512C97.9028 30.456 98.4508 30.408 99.0188 30.368C99.5948 30.328 100.095 30.3 100.519 30.284C100.503 30.036 100.475 29.64 100.435 29.096C100.395 28.552 100.347 27.956 100.291 27.308C100.235 26.66 100.179 26.048 100.123 25.472C100.075 24.888 100.023 24.436 99.9668 24.116C99.7828 24.116 99.5188 24.128 99.1748 24.152C98.8388 24.168 98.5108 24.192 98.1908 24.224C97.8788 24.248 97.6588 24.268 97.5308 24.284C97.4828 24.492 97.4108 24.808 97.3148 25.232C97.2188 25.648 97.1068 26.148 96.9788 26.732C96.8508 27.308 96.7148 27.936 96.5708 28.616C96.4348 29.288 96.2948 29.98 96.1508 30.692ZM109.016 38.072C108.744 38.072 108.436 38.068 108.092 38.06C107.756 38.052 107.436 38.04 107.132 38.024C106.836 38.008 106.6 37.992 106.424 37.976C106.424 37.832 106.42 37.496 106.412 36.968C106.404 36.44 106.396 35.788 106.388 35.012C106.388 34.228 106.384 33.388 106.376 32.492C106.376 31.588 106.372 30.684 106.364 29.78C106.364 28.876 106.364 28.04 106.364 27.272C106.364 26.664 106.364 26.072 106.364 25.496C106.364 24.912 106.36 24.384 106.352 23.912C106.344 23.44 106.332 23.056 106.316 22.76C106.436 22.76 106.608 22.764 106.832 22.772C107.064 22.78 107.312 22.792 107.576 22.808C107.84 22.824 108.092 22.844 108.332 22.868C108.58 22.892 108.78 22.92 108.932 22.952C109.54 23.848 110.144 24.8 110.744 25.808C111.352 26.808 111.94 27.812 112.508 28.82C113.084 29.828 113.62 30.804 114.116 31.748C114.612 32.684 115.052 33.544 115.436 34.328L114.908 22.916C115.092 22.916 115.3 22.924 115.532 22.94C115.764 22.956 115.996 22.98 116.228 23.012C116.468 23.036 116.688 23.068 116.888 23.108C117.088 23.14 117.248 23.18 117.368 23.228C117.392 23.676 117.416 24.216 117.44 24.848C117.464 25.48 117.484 26.164 117.5 26.9C117.524 27.628 117.544 28.372 117.56 29.132C117.576 29.892 117.588 30.632 117.596 31.352C117.604 32.064 117.608 32.716 117.608 33.308C117.608 33.844 117.604 34.372 117.596 34.892C117.588 35.404 117.572 35.876 117.548 36.308C117.532 36.732 117.508 37.092 117.476 37.388C117.452 37.684 117.428 37.884 117.404 37.988C117.228 37.996 117.056 38 116.888 38C116.72 38.008 116.556 38.012 116.396 38.012C116.164 38.012 115.944 38.008 115.736 38C115.528 37.992 115.348 37.976 115.196 37.952C115.084 37.744 114.88 37.38 114.584 36.86C114.296 36.34 113.948 35.72 113.54 35C113.14 34.28 112.712 33.516 112.256 32.708C111.8 31.892 111.348 31.092 110.9 30.308C110.452 29.516 110.04 28.792 109.664 28.136C109.296 27.472 108.992 26.936 108.752 26.528C108.776 26.768 108.796 27.18 108.812 27.764C108.836 28.34 108.856 29.02 108.872 29.804C108.888 30.58 108.904 31.392 108.92 32.24C108.944 33.088 108.96 33.908 108.968 34.7C108.984 35.484 108.996 36.176 109.004 36.776C109.012 37.368 109.016 37.8 109.016 38.072ZM127.751 38.612C126.207 38.612 124.939 38.252 123.947 37.532C122.963 36.812 122.235 35.84 121.763 34.616C121.291 33.392 121.055 32.028 121.055 30.524C121.055 28.884 121.303 27.436 121.799 26.18C122.303 24.924 123.051 23.94 124.043 23.228C125.035 22.516 126.271 22.16 127.751 22.16C128.967 22.16 129.999 22.388 130.847 22.844C131.703 23.292 132.395 23.912 132.923 24.704C133.459 25.488 133.847 26.388 134.087 27.404C134.335 28.412 134.459 29.472 134.459 30.584C134.459 31.664 134.327 32.688 134.063 33.656C133.807 34.624 133.407 35.48 132.863 36.224C132.319 36.96 131.623 37.544 130.775 37.976C129.927 38.4 128.919 38.612 127.751 38.612ZM127.715 36.224C128.779 36.224 129.643 35.96 130.307 35.432C130.971 34.896 131.455 34.192 131.759 33.32C132.071 32.448 132.227 31.5 132.227 30.476C132.227 29.692 132.155 28.928 132.011 28.184C131.875 27.44 131.639 26.772 131.303 26.18C130.975 25.58 130.535 25.104 129.983 24.752C129.431 24.4 128.739 24.224 127.907 24.224C126.883 24.224 126.043 24.504 125.387 25.064C124.739 25.616 124.263 26.372 123.959 27.332C123.655 28.284 123.503 29.36 123.503 30.56C123.503 31.592 123.651 32.54 123.947 33.404C124.251 34.26 124.715 34.944 125.339 35.456C125.963 35.968 126.755 36.224 127.715 36.224Z" fill="#EE5335"/>
</svg>
