<svg width="536" height="100" viewBox="0 0 536 100" fill="none" xmlns="http://www.w3.org/2000/svg">
<path d="M292.236 9.93797V0H242.546V0.62151V9.93797V90.062V99.9999H252.484H292.236V90.062H252.484V9.93797H292.236Z" fill="#1D1D1D"/>
<path d="M316.458 0.000305176V99.9999H366.147V0.000305176H316.458ZM356.209 90.062H326.395V9.93818H356.209V90.062Z" fill="#EE5335"/>
<path d="M178.571 90.0619V0.62146H168.633V90.0619V99.9999H178.571H218.322V90.0619H178.571Z" fill="#EE5335"/>
<path d="M146.271 9.93797V0H96.582V0.62151V9.93797V44.7206V54.6585V90.062V99.9999H106.52H146.271V90.062H106.52V54.6585H146.271V44.7206H106.52V9.93797H146.271Z" fill="#1D1D1D"/>
<path d="M535.09 9.93797V0H485.4V0.62151V9.93797V44.7206V54.6585V90.062V99.9999H495.338H535.09V90.062H495.338V54.6585H535.09V44.7206H495.338V9.93797H535.09Z" fill="#EE5335"/>
<path d="M63.0431 0.621576V82.7558L36.8403 56.5536L36.7806 56.614L36.725 56.5584L9.93798 83.3454V0.311157H0V99.6896H9.93798V97.3995L36.7854 70.5521L63.0431 96.8105V100H72.9811V0.621576H63.0431Z" fill="#1D1D1D"/>
<path d="M452.482 0.621576V2.91104L425.635 29.7584L399.376 3.5007V0.311157H389.438V99.6896H399.376V17.5547L425.579 43.7575L425.64 43.6972L425.695 43.7521L452.482 16.9651V100H462.42V0.621576H452.482Z" fill="#1D1D1D"/>
</svg>
