<svg width="147" height="159" viewBox="0 0 147 159" fill="none" xmlns="http://www.w3.org/2000/svg">
<path d="M73.1183 129.965C105.876 129.965 132.431 103.41 132.431 70.652C132.431 37.8944 105.876 11.3392 73.1183 11.3392C40.3608 11.3392 13.8055 37.8944 13.8055 70.652C13.8055 103.41 40.3608 129.965 73.1183 129.965Z" fill="#1D1D1D"/>
<path d="M35.7782 75.4132C37.2513 73.6497 39.0936 72.2311 41.175 71.2576C43.2565 70.2842 45.5263 69.7797 47.8241 69.7797C50.1219 69.7797 52.3917 70.2842 54.4732 71.2576C56.5546 72.2311 58.3969 73.6497 59.87 75.4132C62.3906 73.0069 64.1328 69.9009 64.872 66.4954C65.6112 63.0899 65.3136 59.5411 64.0175 56.3064C62.7214 53.0716 60.4861 50.2992 57.6 48.3464C54.7138 46.3935 51.3089 45.3499 47.8241 45.3499C44.3393 45.3499 40.9344 46.3935 38.0482 48.3464C35.162 50.2992 32.9268 53.0716 31.6307 56.3064C30.3346 59.5411 30.037 63.0899 30.7762 66.4954C31.5154 69.9009 33.2576 73.0069 35.7782 75.4132Z" fill="white"/>
<path d="M82.8751 75.4134C84.3482 73.6499 86.1905 72.2313 88.272 71.2579C90.3534 70.2845 92.6232 69.7799 94.921 69.7799C97.2188 69.7799 99.4886 70.2845 101.57 71.2579C103.652 72.2313 105.494 73.6499 106.967 75.4134C109.488 73.0072 111.23 69.9011 111.969 66.4957C112.708 63.0902 112.411 59.5414 111.114 56.3066C109.818 53.0719 107.583 50.2994 104.697 48.3466C101.811 46.3938 98.4058 45.3502 94.921 45.3502C91.4363 45.3502 88.0313 46.3938 85.1451 48.3466C82.259 50.2994 80.0238 53.0719 78.7276 56.3066C77.4315 59.5414 77.1339 63.0902 77.8731 66.4957C78.6123 69.9011 80.3545 73.0072 82.8751 75.4134Z" fill="white"/>
<path d="M47.7456 66.2377C51.0598 66.2377 53.7465 63.5511 53.7465 60.2369C53.7465 56.9227 51.0598 54.236 47.7456 54.236C44.4314 54.236 41.7448 56.9227 41.7448 60.2369C41.7448 63.5511 44.4314 66.2377 47.7456 66.2377Z" fill="#1D1D1D"/>
<path d="M94.8281 66.2377C98.1423 66.2377 100.829 63.551 100.829 60.2368C100.829 56.9226 98.1423 54.2359 94.8281 54.2359C91.514 54.2359 88.8273 56.9226 88.8273 60.2368C88.8273 63.551 91.514 66.2377 94.8281 66.2377Z" fill="#1D1D1D"/>
<path d="M30.3717 92.4583C34.2255 92.4583 37.3496 89.3342 37.3496 85.4803C37.3496 81.6265 34.2255 78.5024 30.3717 78.5024C26.5178 78.5024 23.3937 81.6265 23.3937 85.4803C23.3937 89.3342 26.5178 92.4583 30.3717 92.4583Z" fill="#EE5335"/>
<path d="M110.6 92.4583C114.453 92.4583 117.578 89.3342 117.578 85.4803C117.578 81.6265 114.453 78.5024 110.6 78.5024C106.746 78.5024 103.622 81.6265 103.622 85.4803C103.622 89.3342 106.746 92.4583 110.6 92.4583Z" fill="#EE5335"/>
<path d="M70.4981 71.5244L65.2646 94.2029L73.987 85.4805L70.4981 71.5244Z" fill="#EE5335"/>
<path d="M97.1703 158.917L91.2287 153.93L91.3671 158.917H89.5217L89.3743 153.644L81.352 158.917H77.9937L89.3143 151.476L88.8758 135.851L88.5483 124.051L90.3891 124L90.7213 135.851L91.1594 151.462L100.04 158.917H97.1703Z" fill="#1D1D1D"/>
<path d="M69.1701 158.917L63.2284 153.93L63.3669 158.917H61.5264L61.3787 153.644L53.3564 158.917H49.998L61.3141 151.476L60.8759 135.851L60.5484 124.051L62.3935 124L62.7257 135.851L63.1592 151.462L72.0396 158.917H69.1701Z" fill="#1D1D1D"/>
<path d="M73.99 6.97797C72.3625 6.97797 70.9268 8.24216 69.9669 10.184C69.1209 7.26408 67.3433 5.23349 65.2675 5.23349C65.1264 5.24752 64.9865 5.27103 64.8485 5.30387C64.0506 2.18637 62.1961 0 60.034 0C57.1436 0 54.8005 3.90521 54.8005 8.72249C54.8005 13.5398 57.1436 17.445 60.034 17.445C60.1751 17.431 60.3151 17.4074 60.453 17.3746C61.2509 20.4921 63.1054 22.6785 65.2675 22.6785C66.895 22.6785 68.3307 21.4143 69.2906 19.4725C70.1366 22.3924 71.9141 24.4229 73.99 24.4229C76.8803 24.4229 79.2235 20.5177 79.2235 15.7004C79.2235 10.8832 76.8803 6.97797 73.99 6.97797Z" fill="#1D1D1D"/>
<path d="M17.4452 93.1291C15.1543 93.1291 12.8858 92.6779 10.7693 91.8012C8.65279 90.9245 6.72968 89.6395 5.10977 88.0196C3.48986 86.3997 2.20487 84.4766 1.32819 82.36C0.451496 80.2435 0.000276428 77.975 0.000276428 75.6841V66.9616C0.000276428 62.3349 1.83821 57.8977 5.10977 54.6262C8.38132 51.3546 12.8185 49.5167 17.4452 49.5167L17.4452 93.1291Z" fill="#DB0C25"/>
<path d="M128.767 49.5166C131.058 49.5166 133.326 49.9678 135.443 50.8445C137.559 51.7212 139.482 53.0062 141.102 54.6261C142.722 56.246 144.007 58.1691 144.884 60.2856C145.761 62.4022 146.212 64.6706 146.212 66.9615V75.6841C146.212 77.975 145.761 80.2434 144.884 82.36C144.007 84.4765 142.722 86.3996 141.102 88.0195C139.482 89.6394 137.559 90.9244 135.443 91.8011C133.326 92.6778 131.058 93.129 128.767 93.129L128.767 49.5166Z" fill="#DB0C25"/>
<path d="M137.928 68.3322H135.16C135.16 33.2296 106.602 4.67139 71.4994 4.67139C36.3969 4.67139 7.83867 33.2296 7.83867 68.3322H5.0708C5.0708 31.7033 34.8706 1.90353 71.4994 1.90353C108.128 1.90353 137.928 31.7033 137.928 68.3322Z" fill="#DB0C25"/>
</svg>
