<svg width="18" height="20" viewBox="0 0 18 20" fill="none" xmlns="http://www.w3.org/2000/svg">
<path d="M7.62308 7.59662H6.1875V15.5019H7.62308V7.59662Z" fill="black"/>
<path d="M11.5611 7.59662H10.1255V15.5019H11.5611V7.59662Z" fill="black"/>
<path d="M10.4917 0H7.25685C6.7492 0 6.26234 0.201664 5.90337 0.560628C5.54441 0.919592 5.34274 1.40645 5.34274 1.9141V3.09367H0.717789C0.52742 3.09367 0.344847 3.16929 0.210236 3.30391C0.0756241 3.43852 0 3.62109 0 3.81146C0 4.00183 0.0756241 4.1844 0.210236 4.31901C0.344847 4.45362 0.52742 4.52925 0.717789 4.52925H1.99306L2.68932 17.0618C2.7334 17.8566 3.08046 18.6041 3.65907 19.1507C4.23768 19.6973 5.0038 20.0012 5.79974 20H11.956C12.7519 20.0012 13.518 19.6973 14.0966 19.1507C14.6752 18.6041 15.0223 17.8566 15.0664 17.0618L15.7626 4.52925H17.0379C17.2283 4.52925 17.4109 4.45362 17.5455 4.31901C17.6801 4.1844 17.7557 4.00183 17.7557 3.81146C17.7557 3.62109 17.6801 3.43852 17.5455 3.30391C17.4109 3.16929 17.2283 3.09367 17.0379 3.09367H12.4058V1.9141C12.4058 1.66274 12.3563 1.41384 12.2601 1.18161C12.1639 0.949378 12.0229 0.738369 11.8452 0.560628C11.6674 0.382887 11.4564 0.241895 11.2242 0.145703C10.992 0.0495098 10.743 0 10.4917 0ZM6.78071 1.9141C6.78071 1.78719 6.83113 1.66548 6.92087 1.57574C7.01061 1.48599 7.13233 1.43558 7.25924 1.43558H10.4917C10.6186 1.43558 10.7403 1.48599 10.8301 1.57574C10.9198 1.66548 10.9702 1.78719 10.9702 1.9141V3.09367H6.77832L6.78071 1.9141ZM14.3199 4.52925L13.6284 16.9853C13.6046 17.4131 13.4176 17.8155 13.1061 18.1097C12.7945 18.4039 12.3821 18.5675 11.9536 18.5668H5.79256C5.36407 18.5675 4.95162 18.4039 4.64007 18.1097C4.32853 17.8155 4.14159 17.4131 4.11772 16.9853L3.42864 4.52925H14.3199Z" fill="black"/>
</svg>
