<svg width="22" height="22" viewBox="0 0 22 22" fill="none" xmlns="http://www.w3.org/2000/svg">
<path d="M16.0369 12.9688C16.0369 12.6867 16.2664 12.4564 16.5485 12.4564C16.8315 12.4564 17.061 12.6867 17.061 12.9688V19.214C17.061 19.7022 16.8582 20.1496 16.5368 20.4742H16.5352L16.5368 20.475C16.2155 20.7972 15.7665 21 15.2783 21H2.78435C2.29527 21 1.84627 20.798 1.52495 20.4742V20.475C1.2003 20.1512 1 19.7047 1 19.214V6.72175C1 6.23351 1.20197 5.78451 1.52495 5.46319L1.52579 5.46236L1.53497 5.45234C1.85712 5.13519 2.30195 4.93739 2.78436 4.93739H9.03123C9.31331 4.93739 9.54366 5.16773 9.54366 5.44982C9.54366 5.73191 9.31331 5.96226 9.03123 5.96226H2.78436C2.57655 5.96226 2.38376 6.04655 2.24856 6.18426L2.24689 6.1851C2.10918 6.32114 2.02488 6.51394 2.02488 6.72174V19.214C2.02488 19.4235 2.11084 19.6146 2.24855 19.7523H2.24688L2.24855 19.7531C2.38376 19.89 2.57656 19.9751 2.78436 19.9751H15.2783C15.4853 19.9751 15.6772 19.8875 15.8133 19.7523C15.9493 19.6162 16.037 19.4234 16.037 19.214L16.0369 12.9688ZM18.7352 7.43045L10.2699 15.8983C10.1706 15.9976 10.0388 16.0468 9.90857 16.0468V16.0485H6.46593C6.18301 16.0485 5.9535 15.8181 5.9535 15.5361V12.0917C5.9535 11.9507 6.01109 11.823 6.10372 11.7303L14.569 3.26509L14.5974 3.23754L16.3475 1.4899L16.3508 1.48573L16.385 1.45485C16.7047 1.15355 17.1178 1 17.5268 1C17.9516 1 18.3806 1.16275 18.7036 1.48572L18.7077 1.4899L18.7244 1.50826L20.5121 3.29429H20.513C20.8376 3.61811 21.002 4.04875 21.002 4.47523C21.002 4.89838 20.8376 5.32902 20.513 5.6545L20.5121 5.65617L20.5038 5.66368L18.7352 7.43045ZM6.97836 12.3029V15.0236H9.69756L17.6505 7.06916L14.9313 4.34996L6.97836 12.3029ZM15.6547 3.62652L18.3745 6.34721L19.79 4.93341C19.9119 4.80989 19.977 4.64047 19.977 4.47523C19.977 4.30831 19.9119 4.14056 19.79 4.01788L18.0115 2.2402L17.984 2.21349L17.9798 2.20932C17.8571 2.08663 17.6918 2.02487 17.5266 2.02487C17.3655 2.02487 17.2053 2.08413 17.0843 2.1993L17.0701 2.21349L17.0692 2.21182V2.21349L15.6547 3.62652Z" fill="black" stroke="black" stroke-width="0.4"/>
</svg>
