<svg width="13" height="16" viewBox="0 0 13 16" fill="none" xmlns="http://www.w3.org/2000/svg">
<path d="M5.07539 15.5C5.00325 15.5 4.93111 15.4805 4.86745 15.4418C4.74768 15.3692 4.67463 15.2392 4.67463 15.0992V9.1116L0.069053 2.32382C-0.00537446 2.21412 -0.0207179 2.07443 0.0282898 1.95099L0.503939 0.752824C0.564626 0.600076 0.712106 0.5 0.876305 0.5H11.6811C11.8487 0.5 11.999 0.604427 12.0571 0.761756L12.5003 1.95992C12.5452 2.08176 12.5284 2.21756 12.4554 2.32473L7.82302 9.11206V13.8795C7.82302 14.0291 7.73989 14.1663 7.60707 14.2352L5.2602 15.4547C5.20226 15.4851 5.13882 15.5 5.07539 15.5ZM0.851572 2.04947L5.40722 8.76351C5.45234 8.82992 5.47638 8.90825 5.47638 8.9884V14.4392L7.02172 13.6363V8.9884C7.02172 8.90779 7.046 8.82924 7.09157 8.7626L11.6768 2.04397L11.4024 1.30153H1.1486L0.851572 2.04947Z" fill="black" fill-opacity="0.4"/>
</svg>
