<svg width="490" height="695" viewBox="0 0 490 695" fill="none" xmlns="http://www.w3.org/2000/svg">
<path d="M991.645 629.562H74.6348C73.703 629.562 72.8091 629.191 72.1502 628.532C71.4913 627.874 71.1213 626.98 71.1213 626.048C71.1213 625.116 71.4913 624.223 72.1502 623.564C72.8091 622.905 73.703 622.535 74.6348 622.535H991.645C992.576 622.535 993.47 622.905 994.129 623.564C994.788 624.223 995.158 625.116 995.158 626.048C995.158 626.98 994.788 627.874 994.129 628.532C993.47 629.191 992.576 629.562 991.645 629.562Z" fill="#CACACA"/>
<path d="M546.092 39.6129L540.054 -35.5455C539.482 -37.15 538.518 -38.5856 537.248 -39.7208C535.978 -40.856 534.444 -41.6547 532.786 -42.0436C531.127 -42.4326 529.398 -42.3994 527.756 -41.9471C526.114 -41.4949 524.612 -40.638 523.386 -39.4549C474.931 -27.5668 455.379 -2.26817 449.778 29.5039C426.525 24.5754 402.62 23.4995 379.019 26.3192C396.052 2.07431 394.878 -22.636 377.159 -47.7689C376.661 -49.4132 375.755 -50.9048 374.525 -52.1048C373.295 -53.3048 371.782 -54.1742 370.126 -54.6319C368.47 -55.0897 366.725 -55.121 365.053 -54.7229C363.382 -54.3249 361.838 -53.5104 360.566 -52.3553C327.792 -35.7904 304.867 -15.1471 301.176 13.46C260.014 35.5343 227.008 70.2148 206.995 112.417C186.982 154.619 181.016 202.123 189.972 247.963C198.928 293.804 222.334 335.569 256.758 367.136C291.183 398.703 334.816 418.411 381.258 423.37C427.701 428.329 474.511 418.279 514.825 394.693C555.14 371.107 586.837 335.226 605.27 292.31C623.704 249.395 627.903 201.702 617.253 156.226C606.603 110.749 581.664 69.8811 546.092 39.6129Z" fill="#1D1D1D"/>
<path d="M573.378 344.613C750.509 321.892 850.152 610.817 564.396 626.914C546.863 646.15 409.441 662.236 292.981 635.678C188.447 639.866 69.6135 503.131 216.153 316.636L573.378 344.613Z" fill="#1D1D1D"/>
<path d="M396.548 493.699V639.866H464.884L519.104 491.033" fill="#1D1D1D"/>
<path d="M387.657 405.121C357.427 405.398 327.467 399.42 299.659 387.561C241.599 362.359 214.988 319.828 213.883 318.03C213.52 317.428 213.409 316.707 213.575 316.024C213.741 315.341 214.17 314.751 214.769 314.383C215.368 314.015 216.088 313.898 216.772 314.059C217.456 314.219 218.05 314.644 218.423 315.239C239.456 345.111 268.422 368.509 302.05 382.79C354.333 405.394 443.616 416.72 572.041 342.308C572.344 342.132 572.678 342.017 573.025 341.97C573.372 341.923 573.725 341.946 574.064 342.035C574.402 342.125 574.72 342.281 574.998 342.493C575.277 342.706 575.51 342.972 575.686 343.275C575.862 343.578 575.976 343.912 576.022 344.26C576.068 344.607 576.045 344.96 575.955 345.298C575.865 345.636 575.708 345.954 575.495 346.232C575.282 346.51 575.017 346.743 574.713 346.918C499.326 390.6 437.082 405.121 387.657 405.121Z" fill="white"/>
<path d="M399.211 269.9C394.267 269.894 389.527 267.928 386.03 264.431C382.534 260.935 380.567 256.195 380.562 251.25C380.565 250.546 380.848 249.872 381.347 249.375C381.846 248.878 382.522 248.6 383.226 248.6C383.93 248.6 384.606 248.878 385.105 249.375C385.604 249.872 385.886 250.546 385.89 251.25C385.896 254.779 387.302 258.162 389.799 260.656C392.297 263.149 395.682 264.55 399.211 264.55C402.741 264.55 406.126 263.149 408.623 260.656C411.121 258.162 412.527 254.779 412.533 251.25C412.536 250.546 412.819 249.872 413.318 249.375C413.817 248.878 414.493 248.6 415.197 248.6C415.901 248.6 416.577 248.878 417.076 249.375C417.575 249.872 417.858 250.546 417.861 251.25C417.856 256.195 415.889 260.935 412.393 264.431C408.896 267.928 404.156 269.894 399.211 269.9Z" fill="white"/>
<path d="M400.543 226.144C412.315 226.144 421.858 222.474 421.858 217.947C421.858 213.419 412.315 209.749 400.543 209.749C388.772 209.749 379.229 213.419 379.229 217.947C379.229 222.474 388.772 226.144 400.543 226.144Z" fill="white"/>
<path d="M257.227 218.548C263.326 211.246 270.954 205.372 279.572 201.342C288.191 197.311 297.589 195.222 307.103 195.222C316.617 195.222 326.015 197.311 334.633 201.342C343.251 205.372 350.879 211.246 356.978 218.548C367.311 208.683 374.487 195.976 377.599 182.033C380.71 168.09 379.617 153.538 374.458 140.217C369.299 126.895 360.305 115.402 348.614 107.192C336.923 98.982 323.061 94.4228 308.779 94.0914C294.497 93.7599 280.437 97.671 268.378 105.33C256.319 112.989 246.802 124.052 241.03 137.12C235.258 150.188 233.491 164.674 235.953 178.746C238.414 192.818 244.992 205.844 254.857 216.178C255.628 216.986 256.419 217.776 257.227 218.548Z" fill="white"/>
<path d="M452.248 218.548C458.347 211.246 465.975 205.372 474.594 201.342C483.212 197.311 492.61 195.222 502.124 195.222C511.638 195.222 521.036 197.311 529.654 201.342C538.272 205.372 545.9 211.246 551.999 218.548C562.333 208.683 569.509 195.976 572.62 182.033C575.731 168.091 574.638 153.538 569.479 140.217C564.32 126.895 555.326 115.402 543.636 107.192C531.945 98.982 518.082 94.4229 503.8 94.0914C489.518 93.7599 475.459 97.671 463.399 105.33C451.34 112.989 441.823 124.052 436.051 137.12C430.28 150.188 428.513 164.674 430.974 178.746C433.435 192.818 440.014 205.844 449.878 216.177C450.649 216.986 451.439 217.776 452.248 218.548Z" fill="white"/>
<path d="M275.436 198.174C289.158 198.174 300.282 187.05 300.282 173.328C300.282 159.605 289.158 148.481 275.436 148.481C261.714 148.481 250.59 159.605 250.59 173.328C250.59 187.05 261.714 198.174 275.436 198.174Z" fill="#1D1D1D"/>
<path d="M470.451 198.174C484.173 198.174 495.297 187.05 495.297 173.328C495.297 159.605 484.173 148.481 470.451 148.481C456.728 148.481 445.604 159.605 445.604 173.328C445.604 187.05 456.728 198.174 470.451 198.174Z" fill="#1D1D1D"/>
<path d="M504.449 271.127C516.474 271.127 526.222 261.379 526.222 249.355C526.222 237.33 516.474 227.583 504.449 227.583C492.425 227.583 482.677 237.33 482.677 249.355C482.677 261.379 492.425 271.127 504.449 271.127Z" fill="#EE5335"/>
<path d="M307.696 271.127C319.721 271.127 329.468 261.379 329.468 249.355C329.468 237.33 319.721 227.583 307.696 227.583C295.672 227.583 285.924 237.33 285.924 249.355C285.924 261.379 295.672 271.127 307.696 271.127Z" fill="#EE5335"/>
<path d="M75.0245 624.934C83.7652 619.485 77.599 593.81 61.2519 567.588C44.9048 541.366 24.5672 524.526 15.8264 529.975C7.08573 535.424 13.2519 561.099 29.599 587.321C45.9461 613.543 66.2838 630.383 75.0245 624.934Z" fill="#1D1D1D"/>
<path d="M164.137 445.274L45.4243 570.31L76.3778 623.613L188.446 556.646" fill="#1D1D1D"/>
<path d="M371.737 676.551C373.246 666.362 349.689 654.434 319.122 649.909C288.555 645.384 262.552 649.975 261.044 660.164C259.536 670.354 283.093 682.282 313.66 686.807C344.227 691.332 370.229 686.74 371.737 676.551Z" fill="#1D1D1D"/>
<path d="M292.552 492.312L310.952 663.74L371.507 676.314L393.16 545.913" fill="#1D1D1D"/>
</svg>