<svg xmlns="http://www.w3.org/2000/svg" width="65" height="64" viewBox="0 0 65 64" fill="none">
  <path d="M45.6402 33.0075C45.9655 32.9008 46.2188 32.6422 46.3201 32.3142C46.4215 31.9863 46.3601 31.6316 46.1548 31.357C45.4029 30.4052 45.083 29.1813 45.2722 27.9815C45.4109 27.4109 45.0616 26.8349 44.4884 26.6937C43.9178 26.555 43.3418 26.9016 43.2005 27.4722C42.9259 28.9094 43.1525 30.3945 43.8458 31.6824C42.9232 32.5649 42.318 33.7274 42.1234 34.9887C41.9927 36.0952 42.0727 37.215 42.358 38.2922C42.8433 40.8119 43.3952 43.6702 40.7049 47.3658C38.5638 50.3094 37.5239 51.168 37.1533 51.4079L37.156 51.4106C36.828 51.3386 36.4894 51.4239 36.2334 51.6399C35.9801 51.8586 35.8441 52.1812 35.8628 52.5144C35.8841 52.8477 36.0521 53.1544 36.3187 53.3544C38.0012 55.1088 40.3262 56.1007 42.7579 56.098C46.4935 56.098 49.8506 53.8183 51.226 50.3467C51.6366 49.3122 51.9646 48.2456 52.2072 47.1604C52.3352 46.5845 51.9726 46.0165 51.3993 45.8886C50.8234 45.7606 50.2555 46.1232 50.1275 46.6965C49.9062 47.6723 49.6129 48.6322 49.2422 49.5601C48.365 51.7998 46.3866 53.4236 44.0189 53.8503C42.2351 54.1862 40.3901 53.7916 38.8942 52.7597C40.2221 51.5145 41.4086 50.128 42.4298 48.6215C45.6641 44.1741 44.9628 40.5425 44.4535 37.8893C44.2349 37.0814 44.1522 36.2415 44.2136 35.4043C44.6055 33.4499 45.6242 33.0154 45.6402 33.0075Z" fill="#EE5335"/>
  <path d="M49.6613 36.1699C50.2505 36.1699 50.7278 35.6926 50.7278 35.1033C50.7278 34.5141 50.2505 34.0368 49.6613 34.0368H47.9681C47.3789 34.0368 46.9016 34.5141 46.9016 35.1033C46.9016 35.6926 47.3789 36.1699 47.9681 36.1699H49.6613Z" fill="#EE5335"/>
  <path d="M28.2372 43.4626C28.8264 43.4626 29.3037 42.9853 29.3037 42.3961C29.3037 41.9534 29.661 41.5961 30.1036 41.5961C30.5463 41.5961 30.9036 41.9534 30.9036 42.3961C30.9036 42.9853 31.3808 43.4626 31.9701 43.4626C32.5593 43.4626 33.0366 42.9853 33.0366 42.3961C33.0366 40.7749 31.7248 39.4631 30.1036 39.4631C28.4825 39.4631 27.1707 40.7749 27.1707 42.3961C27.1707 42.9853 27.6479 43.4626 28.2372 43.4626Z" fill="#EE5335"/>
  <path d="M27.704 9.60039C27.704 8.30724 26.9254 7.13935 25.7283 6.64345C24.5337 6.15018 23.1579 6.42215 22.2407 7.33668C21.3262 8.25393 21.0541 9.62975 21.5474 10.8243C22.0434 12.0214 23.2112 12.8 24.5044 12.8C26.2695 12.7973 27.7013 11.3655 27.704 9.60039ZM24.5044 10.6669C24.0724 10.6669 23.6832 10.4083 23.5179 10.0083C23.3552 9.61106 23.4459 9.15246 23.7498 8.84584C24.0565 8.54188 24.5151 8.45123 24.9123 8.61387C25.3123 8.77919 25.5709 9.16847 25.5709 9.60041C25.5709 10.1897 25.0936 10.6669 24.5044 10.6669Z" fill="#EE5335"/>
  <path d="M32.5033 0.00124773C31.9141 0.00124773 31.4368 0.478522 31.4368 1.06778C31.4368 1.65704 31.9141 2.13431 32.5033 2.13431C40.3318 2.12898 47.8457 5.19795 53.4313 10.6823C59.0172 16.1642 62.225 23.622 62.3608 31.4505C62.4994 39.2763 59.5558 46.8407 54.1671 52.517C56.3348 47.8669 55.9295 43.5472 54.7483 41.58C54.4097 41.0121 54.0125 40.4815 53.5645 39.9962H55.4336C55.7322 39.9962 56.0202 39.8709 56.2201 39.6496C56.4228 39.4283 56.5241 39.1323 56.4948 38.8337L56.3348 37.0713V37.0686C56.3294 37.0206 56.3214 36.9726 56.3108 36.9273C55.9162 35.2155 54.727 30.0694 49.3546 29.8721C48.616 29.2162 48.664 26.8699 49.008 25.2994V25.2967C49.136 24.7208 48.7733 24.1529 48.2001 24.0249C47.6241 23.8969 47.0562 24.2595 46.9282 24.8328C46.8002 25.4087 45.7604 30.4854 48.56 31.8852H48.5573C48.7066 31.9599 48.8693 31.9972 49.0346 31.9972C51.7862 31.9972 53.3407 33.5943 54.218 37.3352L54.266 37.8631H50.1011C49.5625 37.8631 49.1093 38.2657 49.0426 38.799C48.9759 39.3349 49.3199 39.8335 49.8425 39.9642C49.8585 39.9695 51.5836 40.4521 52.9194 42.6785C54.1433 44.7183 54.2473 51.9678 47.3255 57.9062C42.8167 60.5006 37.7052 61.8658 32.5032 61.8604C31.6473 61.8604 30.8021 61.8151 29.9622 61.7458C29.0263 59.5967 28.2024 56.5438 29.2396 53.6934C31.042 48.734 34.8949 49.0433 35.0522 49.0566C35.3322 49.0859 35.6148 49.0059 35.8361 48.8273L36.9906 47.9021V47.9047C38.1478 46.9821 38.9877 45.7183 39.3929 44.2945L39.9289 42.4227C40.0169 42.1134 39.9609 41.7801 39.7769 41.5188L37.3479 38.0473C36.6012 36.9861 35.5054 36.2262 34.2495 35.9062L32.4551 30.083C32.3485 29.739 32.0765 29.4697 31.7272 29.3711C31.3806 29.2724 31.0046 29.3577 30.7353 29.595L28.589 31.4748L28.141 30.4909V30.4882C28.0184 30.2163 27.7864 30.011 27.5011 29.9176C27.2185 29.8243 26.9092 29.8537 26.6479 30.0003C25.7173 30.5229 17.5716 35.2423 17.5743 39.9482C17.513 40.1935 17.4277 40.4335 17.3184 40.6602C16.5451 42.4732 15.4146 44.1104 13.9934 45.4756L8.9727 50.3523C7.9248 49.0165 6.99431 47.5953 6.18907 46.1021C12.9055 39.9082 13.7746 32.8771 13.8469 30.2772C15.1694 30.0852 16.3853 29.4506 17.2999 28.4747C18.4011 27.3015 18.9583 25.7204 18.8357 24.1153L18.2651 17.3028C18.2411 17.0202 18.1078 16.7588 17.8918 16.5775C17.6758 16.3936 17.3958 16.3029 17.1132 16.3269C16.8306 16.3509 16.5693 16.4869 16.388 16.7029C16.204 16.9188 16.116 17.1988 16.14 17.4814L16.7079 24.2805C16.7853 25.2911 16.4333 26.2856 15.7374 27.0242C15.0281 27.7894 14.0309 28.2213 12.9884 28.216H11.7033C10.6474 28.216 9.63687 27.7707 8.92494 26.9922C8.22905 26.2376 7.89042 25.2244 7.98906 24.2059L9.37551 10.757C9.61815 8.42922 11.4579 6.59212 13.7829 6.34687L27.6585 4.65638L30.1195 9.11719V9.11452C30.3088 9.45581 30.6661 9.66645 31.0527 9.66645H38.7987L37.5668 16.0044C37.1322 18.1561 35.2871 19.7319 33.0927 19.8279L26.5869 20.4972V20.4945C26.0029 20.5558 25.579 21.0811 25.6377 21.665C25.699 22.2516 26.2216 22.6755 26.8055 22.6168L29.9438 22.2942L30.4877 27.8349C30.5411 28.3815 30.9997 28.7974 31.549 28.7974C31.5836 28.7974 31.6183 28.7948 31.6556 28.7921C31.9356 28.7654 32.1942 28.6268 32.3755 28.4082C32.5542 28.1895 32.6395 27.9069 32.6102 27.6269L32.0636 22.0756L33.2607 21.953H33.2634C34.202 21.8997 35.1192 21.657 35.9617 21.2411C36.8416 21.721 37.6602 22.3103 38.3934 22.9928C39.6733 24.0727 40.8864 25.0965 42.2009 25.0965C42.2783 25.0965 42.3582 25.0939 42.4382 25.0859C43.1395 25.0086 43.7794 24.6433 44.2007 24.078C45.2245 22.8141 45.5391 21.5983 45.1365 20.4624C44.4353 18.4973 41.8463 17.6094 39.4919 17.0789C39.5586 16.8602 39.6146 16.6362 39.6599 16.4123L41.1398 8.80491C41.2011 8.49028 41.1184 8.16766 40.9158 7.92233C40.7131 7.677 40.4118 7.53305 40.0946 7.53305H31.6852L29.1788 2.99497C28.9682 2.61369 28.5469 2.40038 28.1149 2.45104L13.5384 4.22684C10.2161 4.58946 7.59782 7.22112 7.25387 10.546L5.86741 23.9949C5.71543 25.6134 6.25403 27.2239 7.34725 28.4264C8.46443 29.6503 10.0456 30.3488 11.704 30.3488H11.7067C11.608 32.6232 10.7868 38.6599 5.20886 44.0912V44.0886C3.51306 40.2837 2.63853 36.1645 2.64119 31.9966C2.64119 29.7462 2.89183 27.5039 3.39313 25.3095C3.45712 25.0322 3.40646 24.7442 3.25714 24.5042C3.10783 24.2642 2.86786 24.0936 2.59056 24.0296C2.31593 23.9683 2.0253 24.0163 1.78532 24.1683C1.54535 24.3176 1.37737 24.5575 1.31337 24.8322C-0.68106 33.5112 1.03075 42.6298 6.03814 49.9914C11.0455 57.3558 18.8952 62.3018 27.6992 63.6376C36.5031 64.9734 45.4647 62.5817 52.4318 57.0331C59.3989 51.4871 63.7367 43.288 64.4091 34.4089C65.0783 25.5299 62.0201 16.771 55.9649 10.2415C49.9097 3.71188 41.4095 0 32.5039 0L32.5033 0.00124773ZM43.1256 21.1797C43.2963 21.6596 42.9017 22.2916 42.5417 22.7368C42.3684 22.9501 42.2697 22.9581 42.2351 22.9634C41.6938 23.0061 40.5927 22.0596 39.7687 21.3636V21.3609C39.1581 20.8277 38.5182 20.3291 37.849 19.8678C38.0969 19.6145 38.3236 19.3399 38.5289 19.0519C41.9577 19.7718 42.9203 20.6064 43.1256 21.1797ZM30.9006 32.2826L31.9645 35.7302H30.5246L29.5114 33.5011L30.9006 32.2826ZM10.3433 51.9921L15.4786 47.0061C17.1051 45.4409 18.3982 43.5665 19.2835 41.4921C19.5181 41.0255 19.6621 40.5189 19.7048 39.9963C19.7048 37.6206 23.6509 34.357 26.693 32.4558L28.8661 37.2365V37.2392C29.0394 37.6178 29.418 37.8631 29.8367 37.8631H32.895C33.9722 37.8631 34.9827 38.3884 35.5986 39.271L37.737 42.3239L37.3424 43.7077V43.7104C37.0571 44.7076 36.4705 45.5902 35.6572 46.2381L34.82 46.9073C32.7482 46.8753 29.0074 48.0885 27.2344 52.9626C26.1439 55.9622 26.6852 59.0391 27.5491 61.4416C20.9125 60.3218 14.8497 56.9917 10.3433 51.9921Z" fill="#EE5335"/>
</svg>